<?xml version="1.0" encoding="UTF-8" standalone="no"?>
<svg
   xmlns:osb="http://www.openswatchbook.org/uri/2009/osb"
   xmlns:dc="http://purl.org/dc/elements/1.1/"
   xmlns:cc="http://creativecommons.org/ns#"
   xmlns:rdf="http://www.w3.org/1999/02/22-rdf-syntax-ns#"
   xmlns:svg="http://www.w3.org/2000/svg"
   xmlns="http://www.w3.org/2000/svg"
   xmlns:sodipodi="http://sodipodi.sourceforge.net/DTD/sodipodi-0.dtd"
   xmlns:inkscape="http://www.inkscape.org/namespaces/inkscape"
   width="256"
   height="256"
   viewBox="0 0 67.733332 67.733332"
   version="1.1"
   id="svg8"
   sodipodi:docname="logo.svg"
   inkscape:version="1.0.2 (e86c870879, 2021-01-15)">
  <defs
     id="defs2">
    <inkscape:path-effect
       effect="bspline"
       id="path-effect1325"
       is_visible="true"
       lpeversion="1"
       weight="33.333333"
       steps="2"
       helper_size="0"
       apply_no_weight="true"
       apply_with_weight="true"
       only_selected="false" />
    <inkscape:path-effect
       effect="bspline"
       id="path-effect1302"
       is_visible="true"
       lpeversion="1"
       weight="33.333333"
       steps="2"
       helper_size="0"
       apply_no_weight="true"
       apply_with_weight="true"
       only_selected="false" />
    <inkscape:path-effect
       effect="bspline"
       id="path-effect1298"
       is_visible="true"
       lpeversion="1"
       weight="33.333333"
       steps="2"
       helper_size="0"
       apply_no_weight="true"
       apply_with_weight="true"
       only_selected="false" />
    <inkscape:path-effect
       effect="bspline"
       id="path-effect1294"
       is_visible="true"
       lpeversion="1"
       weight="33.333333"
       steps="2"
       helper_size="0"
       apply_no_weight="true"
       apply_with_weight="true"
       only_selected="false" />
    <inkscape:path-effect
       effect="bspline"
       id="path-effect1290"
       is_visible="true"
       lpeversion="1"
       weight="33.333333"
       steps="2"
       helper_size="0"
       apply_no_weight="true"
       apply_with_weight="true"
       only_selected="false" />
    <inkscape:path-effect
       effect="bspline"
       id="path-effect1286"
       is_visible="true"
       lpeversion="1"
       weight="33.333333"
       steps="2"
       helper_size="0"
       apply_no_weight="true"
       apply_with_weight="true"
       only_selected="false" />
    <inkscape:path-effect
       effect="bspline"
       id="path-effect1282"
       is_visible="true"
       lpeversion="1"
       weight="33.333333"
       steps="2"
       helper_size="0"
       apply_no_weight="true"
       apply_with_weight="true"
       only_selected="false" />
    <inkscape:path-effect
       effect="bspline"
       id="path-effect1258"
       is_visible="true"
       lpeversion="1"
       weight="33.333333"
       steps="2"
       helper_size="0"
       apply_no_weight="true"
       apply_with_weight="true"
       only_selected="false" />
    <inkscape:path-effect
       effect="bspline"
       id="path-effect1250"
       is_visible="true"
       lpeversion="1"
       weight="33.333333"
       steps="2"
       helper_size="0"
       apply_no_weight="true"
       apply_with_weight="true"
       only_selected="false" />
    <inkscape:path-effect
       effect="bspline"
       id="path-effect1241"
       is_visible="true"
       lpeversion="1"
       weight="33.333333"
       steps="2"
       helper_size="0"
       apply_no_weight="true"
       apply_with_weight="true"
       only_selected="false" />
    <inkscape:path-effect
       effect="bspline"
       id="path-effect1218"
       is_visible="true"
       lpeversion="1"
       weight="33.333333"
       steps="2"
       helper_size="0"
       apply_no_weight="true"
       apply_with_weight="true"
       only_selected="false" />
    <inkscape:path-effect
       effect="bspline"
       id="path-effect1214"
       is_visible="true"
       lpeversion="1"
       weight="33.333333"
       steps="2"
       helper_size="0"
       apply_no_weight="true"
       apply_with_weight="true"
       only_selected="false" />
    <inkscape:path-effect
       effect="bspline"
       id="path-effect1210"
       is_visible="true"
       lpeversion="1"
       weight="33.333333"
       steps="2"
       helper_size="0"
       apply_no_weight="true"
       apply_with_weight="true"
       only_selected="false" />
    <inkscape:path-effect
       effect="bspline"
       id="path-effect1205"
       is_visible="true"
       lpeversion="1"
       weight="33.333333"
       steps="2"
       helper_size="0"
       apply_no_weight="true"
       apply_with_weight="true"
       only_selected="false" />
    <inkscape:path-effect
       effect="bspline"
       id="path-effect1182"
       is_visible="true"
       lpeversion="1"
       weight="33.333333"
       steps="2"
       helper_size="0"
       apply_no_weight="true"
       apply_with_weight="true"
       only_selected="false" />
    <inkscape:path-effect
       effect="bspline"
       id="path-effect1177"
       is_visible="true"
       lpeversion="1"
       weight="33.333333"
       steps="2"
       helper_size="0"
       apply_no_weight="true"
       apply_with_weight="true"
       only_selected="false" />
    <inkscape:path-effect
       effect="bspline"
       id="path-effect1154"
       is_visible="true"
       lpeversion="1"
       weight="33.333333"
       steps="2"
       helper_size="0"
       apply_no_weight="true"
       apply_with_weight="true"
       only_selected="false" />
    <inkscape:path-effect
       effect="bspline"
       id="path-effect1150"
       is_visible="true"
       lpeversion="1"
       weight="33.333333"
       steps="2"
       helper_size="0"
       apply_no_weight="true"
       apply_with_weight="true"
       only_selected="false" />
    <inkscape:path-effect
       effect="bspline"
       id="path-effect1138"
       is_visible="true"
       lpeversion="1"
       weight="33.333333"
       steps="2"
       helper_size="0"
       apply_no_weight="true"
       apply_with_weight="true"
       only_selected="false" />
    <inkscape:path-effect
       effect="bspline"
       id="path-effect977"
       is_visible="true"
       lpeversion="1"
       weight="33.333333"
       steps="2"
       helper_size="0"
       apply_no_weight="true"
       apply_with_weight="true"
       only_selected="false" />
    <linearGradient
       id="linearGradient971"
       osb:paint="solid">
      <stop
         style="stop-color:#000000;stop-opacity:1;"
         offset="0"
         id="stop969" />
    </linearGradient>
    <inkscape:path-effect
       effect="bspline"
       id="path-effect957"
       is_visible="true"
       lpeversion="1"
       weight="33.333333"
       steps="2"
       helper_size="0"
       apply_no_weight="true"
       apply_with_weight="true"
       only_selected="false" />
    <inkscape:path-effect
       effect="bspline"
       id="path-effect952"
       is_visible="true"
       lpeversion="1"
       weight="33.333333"
       steps="2"
       helper_size="0"
       apply_no_weight="true"
       apply_with_weight="true"
       only_selected="false" />
    <inkscape:path-effect
       effect="bspline"
       id="path-effect929"
       is_visible="true"
       lpeversion="1"
       weight="33.333333"
       steps="2"
       helper_size="0"
       apply_no_weight="true"
       apply_with_weight="true"
       only_selected="false" />
  </defs>
  <sodipodi:namedview
     id="base"
     pagecolor="#ffffff"
     bordercolor="#666666"
     borderopacity="1.0"
     inkscape:pageopacity="0.0"
     inkscape:pageshadow="2"
     inkscape:zoom="2.8"
     inkscape:cx="28.389345"
     inkscape:cy="118.66461"
     inkscape:document-units="px"
     inkscape:current-layer="layer2"
     inkscape:document-rotation="0"
     showgrid="true"
     units="px"
     width="64px"
     showguides="true"
     inkscape:snap-grids="false"
     inkscape:snap-to-guides="false"
     inkscape:window-width="1920"
     inkscape:window-height="1057"
     inkscape:window-x="-8"
     inkscape:window-y="-8"
     inkscape:window-maximized="1">
    <inkscape:grid
       type="xygrid"
       id="grid863"
       dotted="false"
       originy="0.079374998"
       originx="-0.026458333" />
  </sodipodi:namedview>
  <metadata
     id="metadata5">
    <rdf:RDF>
      <cc:Work
         rdf:about="">
        <dc:format>image/svg+xml</dc:format>
        <dc:type
           rdf:resource="http://purl.org/dc/dcmitype/StillImage" />
        <dc:title />
      </cc:Work>
    </rdf:RDF>
  </metadata>
  <g
     inkscape:label="Layer 1"
     inkscape:groupmode="layer"
     id="layer1">
    <ellipse
       style="fill:#000000;fill-opacity:1;stroke-width:0.264583"
       id="path959"
       cx="33.866665"
       cy="33.866665"
       r="28.442707" />
  </g>
  <g
     inkscape:groupmode="layer"
     id="layer2"
     inkscape:label="Layer 2">
    <path
       style="fill:none;fill-rule:nonzero;stroke:#f95959;stroke-width:2.02185;stroke-linecap:butt;stroke-linejoin:miter;stroke-miterlimit:4;stroke-dasharray:none;stroke-opacity:1"
       d="m 26.336555,36.962709 c 0,0 -15.450654,-1.46919 -15.450654,-1.46919 0,0 12.537796,-8.313593 12.537796,-8.313593 0,0 -9.54776,-11.625509 -9.54776,-11.625509 0,0 14.744161,2.986962 14.744161,2.986962 0,0 1.469189,-14.9717632 1.469189,-14.9717632 0,0 8.313594,12.5377962 8.313594,12.5377962 0,0 11.625509,-9.5477601 11.625509,-9.5477601 0,0 -2.986963,15.3825591 -2.986963,15.3825591"
       id="path873" />
    <path
       id="path1288-0"
       style="fill:none;fill-rule:nonzero;stroke:#e3e3e3;stroke-width:2.02185;stroke-linecap:butt;stroke-linejoin:miter;stroke-miterlimit:4;stroke-dasharray:none;stroke-opacity:1"
       d="m 18.682232,43.596643 c -0.241872,0.951007 -0.483712,1.901889 -0.57557,2.9348 -0.09186,1.03291 -0.03381,2.147751 0.258364,3.244004 0.292165,1.096251 0.818321,2.173839 1.353664,3.14172 0.535343,0.96788 1.079844,1.826081 1.699116,2.583606 0.619272,0.757527 1.313241,1.414428 2.269195,1.952028 0.955954,0.537599 2.173849,0.956039 3.138449,1.109785 0.9646,0.153746 1.675975,0.04293 2.387191,-0.06785 m 3.315127,-36.037277 c 0.0046,-0.489999 0.0095,-0.98025 0.40537,-1.300629 0.395928,-0.320381 1.182833,-0.470597 1.906085,-0.546231 0.723252,-0.07564 1.382757,-0.07671 1.967999,0.01812 0.585242,0.09483 1.096142,0.285461 1.394268,0.519089 0.298127,0.233628 0.383679,0.510054 0.405235,0.7227 0.02156,0.212646 -0.02074,0.361637 -0.06301,0.510463 M 26.377586,37.621126 c -0.02674,-3.477468 -0.05347,-6.95519 0.02846,-8.938933 0.08194,-1.983744 0.272601,-2.473368 1.260564,-3.315447 0.987964,-0.84208 2.773043,-2.036384 3.665572,-2.633528 0.892528,-0.597145 1.212174,-0.27855 1.457201,-0.151223 0.245026,0.127327 0.734753,0.381811 1.319956,0.487135 0.585204,0.105324 1.265913,0.06165 2.031616,-0.04599 0.765702,-0.107649 1.616393,-0.279245 2.052135,-0.450034 0.435741,-0.17079 0.456736,-0.341018 0.605851,-0.319988 0.149116,0.02103 0.426033,0.233318 0.617914,0.541532 0.191879,0.308213 0.298917,0.712249 0.767586,1.019853 0.46867,0.307604 1.298718,0.518981 2.128485,0.730285 m -9.903177,32.439071 c 2.359329,-1.365517 4.718582,-2.730989 6.531011,-3.850903 1.812429,-1.119915 3.077985,-1.994229 4.735611,-3.11391 1.657626,-1.11968 3.707154,-2.484613 4.987557,-3.050411 1.280402,-0.565799 1.791369,-0.332624 2.48317,-0.110409 0.6918,0.222213 1.564398,0.43352 2.128183,0.485716 0.563786,0.05219 0.8189,-0.0546 1.722111,-0.630506 0.903212,-0.575912 2.454519,-1.620911 3.240561,-2.281591 0.786042,-0.660681 0.806862,-0.937281 0.9628,-3.139518 0.155938,-2.202237 0.44698,-6.329941 0.496768,-8.478775 0.04979,-2.148836 -0.141961,-2.318715 -0.461271,-2.4353 -0.31931,-0.116584 -0.766173,-0.17967 -1.383292,-0.45892 -0.617118,-0.279248 -1.404444,-0.774772 -1.725742,-1.997545 -0.321298,-1.222772 -0.176215,-3.172729 -0.25256,-4.221987 -0.07635,-1.049257 -0.374432,-1.197686 -1.459954,-1.49379 -1.085524,-0.296105 -2.958398,-0.739781 -4.213938,-0.907963 -1.255542,-0.168182 -1.893597,-0.06076 -3.68983,0.899578 -1.796233,0.960337 -4.750382,2.773522 -6.259356,3.744084 -1.508973,0.970563 -1.572585,1.098313 -1.741908,1.6305 -0.169323,0.532189 -0.444348,1.468713 -0.528449,1.968817 -0.08411,0.500104 0.02237,0.563752 1.150448,0.859694 1.128072,0.295942 3.277652,0.824261 4.501461,1.130737 1.223808,0.306474 1.52179,0.391081 1.586551,1.061208 0.06476,0.670126 -0.103365,1.92559 -0.304427,2.468422 -0.201061,0.542834 -0.43536,0.373023 -1.138167,-0.0726 C 43.074278,34.542855 41.903,33.821456 40.785358,33.397724 39.667715,32.973993 38.603791,32.8481 37.550852,33.046967 c -1.052941,0.198866 -2.094751,0.722611 -3.136483,1.246314 0,0 -2.781392,1.005749 -2.781392,1.005749 0,0 -2.416685,0.947091 -2.416685,0.947091 -2.136393,1.045983 -4.272683,2.091914 -6.409179,3.137949 m -6.121341,3.520517 c -0.274794,1.106919 -0.549543,2.213659 -0.653908,3.415912 -0.104364,1.202253 -0.03841,2.499882 0.293528,3.775853 0.331931,1.275973 0.929679,2.530174 1.537891,3.656742 0.608212,1.126567 1.226815,2.125445 1.930379,3.007173 0.703564,0.881727 1.491974,1.646307 2.578056,2.272058 1.086082,0.625752 2.469718,1.112783 3.565623,1.291743 1.095905,0.178959 1.90412,0.04998 2.712141,-0.07897 M 21.241788,39.139571 c 0.891227,0.08683 1.782178,0.173625 2.995739,0.727334 1.21356,0.553709 2.74965,1.574118 4.105715,2.89578 1.356065,1.32166 2.532112,2.944394 3.317348,4.793479 0.785239,1.849085 1.17978,3.924402 1.197794,5.759648 0.01801,1.835247 -0.340396,3.430421 -0.654717,4.393649 -0.314321,0.963228 -0.584554,1.294625 -2.282288,2.621246 -1.697735,1.326622 -4.822904,3.648428 -6.866777,4.840243 -2.043872,1.191815 -3.006537,1.253573 -3.864139,1.164777 -0.857603,-0.0888 -1.610159,-0.328247 -2.40807,-0.687946 -0.797909,-0.359699 -1.641122,-0.839694 -2.108644,-1.470708 -0.467524,-0.631013 -0.559071,-1.413109 -0.470749,-2.57166 0.08832,-1.158552 0.356572,-2.693406 0.445272,-3.671341 0.0887,-0.977934 -0.0023,-1.398993 -0.680282,-2.10497 -0.678026,-0.705979 -1.943289,-1.696748 -2.652063,-2.673389 -0.708774,-0.976641 -0.860791,-1.939157 -0.787277,-2.947265 0.07351,-1.008106 0.372643,-2.061626 0.747303,-2.934829 0.374659,-0.873202 0.824814,-1.565932 0.891808,-2.077428 0.06699,-0.511496 -0.249459,-0.841927 -0.595876,-1.108429 -0.346416,-0.266502 -0.72283,-0.468966 -0.956533,-0.724256 -0.233703,-0.25529 -0.32447,-0.563527 0.242851,-0.818388 0.56732,-0.25486 1.792564,-0.455995 2.99061,-0.376627 1.198046,0.07937 2.368728,0.439105 3.31604,0.788608 0.947312,0.349501 1.671198,0.688699 3.20384,1.196748 1.532643,0.50805 3.873937,1.184973 5.204369,1.650896 1.330433,0.465925 1.649968,0.720691 1.89502,0.986261 0.245051,0.265572 0.415701,0.541857 0.523338,1.360756 0.107635,0.818896 0.152426,2.180381 0.260988,3.499262 0.108563,1.318881 0.280859,2.595058 0.552823,3.81328 0.271962,1.21822 0.643509,2.378366 0.330264,3.565501 -0.313243,1.187138 -1.311137,2.401418 -2.30903,3.615698 M 11.081113,42.452261 c 3.405325,-1.106306 6.810498,-2.212563 10.215515,-3.318769" />
  </g>
</svg>
