<?xml version="1.0" encoding="UTF-8" standalone="no"?>
<svg
   xmlns:osb="http://www.openswatchbook.org/uri/2009/osb"
   xmlns:dc="http://purl.org/dc/elements/1.1/"
   xmlns:cc="http://creativecommons.org/ns#"
   xmlns:rdf="http://www.w3.org/1999/02/22-rdf-syntax-ns#"
   xmlns:svg="http://www.w3.org/2000/svg"
   xmlns="http://www.w3.org/2000/svg"
   xmlns:sodipodi="http://sodipodi.sourceforge.net/DTD/sodipodi-0.dtd"
   xmlns:inkscape="http://www.inkscape.org/namespaces/inkscape"
   width="256"
   height="256"
   viewBox="0 0 67.733332 67.733332"
   version="1.1"
   id="svg8"
   sodipodi:docname="logo.svg"
   inkscape:version="1.0.2 (e86c870879, 2021-01-15)">
  <defs
     id="defs2">
    <inkscape:path-effect
       effect="bspline"
       id="path-effect1325"
       is_visible="true"
       lpeversion="1"
       weight="33.333333"
       steps="2"
       helper_size="0"
       apply_no_weight="true"
       apply_with_weight="true"
       only_selected="false" />
    <inkscape:path-effect
       effect="bspline"
       id="path-effect1302"
       is_visible="true"
       lpeversion="1"
       weight="33.333333"
       steps="2"
       helper_size="0"
       apply_no_weight="true"
       apply_with_weight="true"
       only_selected="false" />
    <inkscape:path-effect
       effect="bspline"
       id="path-effect1298"
       is_visible="true"
       lpeversion="1"
       weight="33.333333"
       steps="2"
       helper_size="0"
       apply_no_weight="true"
       apply_with_weight="true"
       only_selected="false" />
    <inkscape:path-effect
       effect="bspline"
       id="path-effect1294"
       is_visible="true"
       lpeversion="1"
       weight="33.333333"
       steps="2"
       helper_size="0"
       apply_no_weight="true"
       apply_with_weight="true"
       only_selected="false" />
    <inkscape:path-effect
       effect="bspline"
       id="path-effect1290"
       is_visible="true"
       lpeversion="1"
       weight="33.333333"
       steps="2"
       helper_size="0"
       apply_no_weight="true"
       apply_with_weight="true"
       only_selected="false" />
    <inkscape:path-effect
       effect="bspline"
       id="path-effect1286"
       is_visible="true"
       lpeversion="1"
       weight="33.333333"
       steps="2"
       helper_size="0"
       apply_no_weight="true"
       apply_with_weight="true"
       only_selected="false" />
    <inkscape:path-effect
       effect="bspline"
       id="path-effect1282"
       is_visible="true"
       lpeversion="1"
       weight="33.333333"
       steps="2"
       helper_size="0"
       apply_no_weight="true"
       apply_with_weight="true"
       only_selected="false" />
    <inkscape:path-effect
       effect="bspline"
       id="path-effect1258"
       is_visible="true"
       lpeversion="1"
       weight="33.333333"
       steps="2"
       helper_size="0"
       apply_no_weight="true"
       apply_with_weight="true"
       only_selected="false" />
    <inkscape:path-effect
       effect="bspline"
       id="path-effect1250"
       is_visible="true"
       lpeversion="1"
       weight="33.333333"
       steps="2"
       helper_size="0"
       apply_no_weight="true"
       apply_with_weight="true"
       only_selected="false" />
    <inkscape:path-effect
       effect="bspline"
       id="path-effect1241"
       is_visible="true"
       lpeversion="1"
       weight="33.333333"
       steps="2"
       helper_size="0"
       apply_no_weight="true"
       apply_with_weight="true"
       only_selected="false" />
    <inkscape:path-effect
       effect="bspline"
       id="path-effect1218"
       is_visible="true"
       lpeversion="1"
       weight="33.333333"
       steps="2"
       helper_size="0"
       apply_no_weight="true"
       apply_with_weight="true"
       only_selected="false" />
    <inkscape:path-effect
       effect="bspline"
       id="path-effect1214"
       is_visible="true"
       lpeversion="1"
       weight="33.333333"
       steps="2"
       helper_size="0"
       apply_no_weight="true"
       apply_with_weight="true"
       only_selected="false" />
    <inkscape:path-effect
       effect="bspline"
       id="path-effect1210"
       is_visible="true"
       lpeversion="1"
       weight="33.333333"
       steps="2"
       helper_size="0"
       apply_no_weight="true"
       apply_with_weight="true"
       only_selected="false" />
    <inkscape:path-effect
       effect="bspline"
       id="path-effect1205"
       is_visible="true"
       lpeversion="1"
       weight="33.333333"
       steps="2"
       helper_size="0"
       apply_no_weight="true"
       apply_with_weight="true"
       only_selected="false" />
    <inkscape:path-effect
       effect="bspline"
       id="path-effect1182"
       is_visible="true"
       lpeversion="1"
       weight="33.333333"
       steps="2"
       helper_size="0"
       apply_no_weight="true"
       apply_with_weight="true"
       only_selected="false" />
    <inkscape:path-effect
       effect="bspline"
       id="path-effect1177"
       is_visible="true"
       lpeversion="1"
       weight="33.333333"
       steps="2"
       helper_size="0"
       apply_no_weight="true"
       apply_with_weight="true"
       only_selected="false" />
    <inkscape:path-effect
       effect="bspline"
       id="path-effect1154"
       is_visible="true"
       lpeversion="1"
       weight="33.333333"
       steps="2"
       helper_size="0"
       apply_no_weight="true"
       apply_with_weight="true"
       only_selected="false" />
    <inkscape:path-effect
       effect="bspline"
       id="path-effect1150"
       is_visible="true"
       lpeversion="1"
       weight="33.333333"
       steps="2"
       helper_size="0"
       apply_no_weight="true"
       apply_with_weight="true"
       only_selected="false" />
    <inkscape:path-effect
       effect="bspline"
       id="path-effect1138"
       is_visible="true"
       lpeversion="1"
       weight="33.333333"
       steps="2"
       helper_size="0"
       apply_no_weight="true"
       apply_with_weight="true"
       only_selected="false" />
    <inkscape:path-effect
       effect="bspline"
       id="path-effect977"
       is_visible="true"
       lpeversion="1"
       weight="33.333333"
       steps="2"
       helper_size="0"
       apply_no_weight="true"
       apply_with_weight="true"
       only_selected="false" />
    <linearGradient
       id="linearGradient971"
       osb:paint="solid">
      <stop
         style="stop-color:#000000;stop-opacity:1;"
         offset="0"
         id="stop969" />
    </linearGradient>
    <inkscape:path-effect
       effect="bspline"
       id="path-effect957"
       is_visible="true"
       lpeversion="1"
       weight="33.333333"
       steps="2"
       helper_size="0"
       apply_no_weight="true"
       apply_with_weight="true"
       only_selected="false" />
    <inkscape:path-effect
       effect="bspline"
       id="path-effect952"
       is_visible="true"
       lpeversion="1"
       weight="33.333333"
       steps="2"
       helper_size="0"
       apply_no_weight="true"
       apply_with_weight="true"
       only_selected="false" />
    <inkscape:path-effect
       effect="bspline"
       id="path-effect929"
       is_visible="true"
       lpeversion="1"
       weight="33.333333"
       steps="2"
       helper_size="0"
       apply_no_weight="true"
       apply_with_weight="true"
       only_selected="false" />
  </defs>
  <sodipodi:namedview
     id="base"
     pagecolor="#ffffff"
     bordercolor="#666666"
     borderopacity="1.0"
     inkscape:pageopacity="0.0"
     inkscape:pageshadow="2"
     inkscape:zoom="2.8"
     inkscape:cx="28.389345"
     inkscape:cy="118.66461"
     inkscape:document-units="px"
     inkscape:current-layer="layer2"
     inkscape:document-rotation="0"
     showgrid="true"
     units="px"
     width="64px"
     showguides="true"
     inkscape:snap-grids="false"
     inkscape:snap-to-guides="false"
     inkscape:window-width="1920"
     inkscape:window-height="1057"
     inkscape:window-x="-8"
     inkscape:window-y="-8"
     inkscape:window-maximized="1">
    <inkscape:grid
       type="xygrid"
       id="grid863"
       dotted="false"
       originy="0.079374998"
       originx="-0.026458333" />
  </sodipodi:namedview>
  <metadata
     id="metadata5">
    <rdf:RDF>
      <cc:Work
         rdf:about="">
        <dc:format>image/svg+xml</dc:format>
        <dc:type
           rdf:resource="http://purl.org/dc/dcmitype/StillImage" />
        <dc:title />
      </cc:Work>
    </rdf:RDF>
  </metadata>
  <g
     inkscape:label="Layer 1"
     inkscape:groupmode="layer"
     id="layer1">
    <ellipse
       style="fill:#000000;fill-opacity:1;stroke-width:0.264583"
       id="path959"
       cx="33.866665"
       cy="33.866665"
       r="28.442707" />
  </g>
  <g
     inkscape:groupmode="layer"
     id="layer2"
     inkscape:label="Layer 2">
    <path
       style="fill:none;stroke:#f95959;stroke-width:0.79374998;stroke-linecap:butt;stroke-linejoin:miter;stroke-opacity:1;stroke-miterlimit:4;stroke-dasharray:none;fill-rule:nonzero"
       d="m 24.724159,36.065996 c 0,0 -16.1752345,-1.538089 -16.1752345,-1.538089 0,0 13.1257735,-8.703472 13.1257735,-8.703472 0,0 -9.995515,-12.170703 -9.995515,-12.170703 0,0 15.435608,3.12704 15.435608,3.12704 0,0 1.538089,-15.6738848 1.538089,-15.6738848 0,0 8.703471,13.1257738 8.703471,13.1257738 0,0 12.170704,-9.9955158 12.170704,-9.9955158 0,0 -3.127041,16.1039458 -3.127041,16.1039458"
       id="path873" />
    <path
       id="path1288-0"
       style="fill:none;stroke:#e3e3e3;stroke-width:0.79374998;stroke-linecap:butt;stroke-linejoin:miter;stroke-opacity:1;stroke-miterlimit:4;stroke-dasharray:none;fill-rule:nonzero"
       d="m 16.710875,43.011038 c -0.253214,0.995605 -0.506396,1.99108 -0.602561,3.07243 -0.09617,1.081351 -0.03539,2.248474 0.27048,3.396136 0.305867,1.147662 0.856697,2.275785 1.417146,3.289056 0.560448,1.01327 1.130484,1.911717 1.778798,2.704768 0.648313,0.793052 1.374827,1.480759 2.375612,2.04357 1.000785,0.562811 2.275794,1.000875 3.285631,1.161831 1.009836,0.160956 1.754572,0.04495 2.499141,-0.07103 m 3.470595,-37.727294 c 0.0049,-0.512978 0.0099,-1.026221 0.424381,-1.361625 0.414496,-0.335405 1.238303,-0.492666 1.995473,-0.571846 0.75717,-0.07918 1.447603,-0.08031 2.060291,0.01897 0.612688,0.09928 1.147547,0.298848 1.459654,0.543432 0.312108,0.244585 0.401673,0.533975 0.424239,0.756593 0.02257,0.222618 -0.02172,0.378596 -0.06596,0.534401 M 24.767113,36.75529 c -0.02799,-3.640548 -0.05598,-7.281363 0.0298,-9.358137 0.08578,-2.076774 0.285386,-2.58936 1.319681,-3.470929 1.034295,-0.88157 2.903088,-2.131883 3.837473,-2.757031 0.934385,-0.625149 1.269022,-0.291612 1.525539,-0.158314 0.256517,0.133298 0.76921,0.399716 1.381857,0.50998 0.612648,0.110263 1.32528,0.06454 2.126891,-0.04815 0.801611,-0.112697 1.692196,-0.29234 2.148373,-0.471139 0.456176,-0.178799 0.478156,-0.35701 0.634264,-0.334994 0.156109,0.02202 0.446012,0.24426 0.646891,0.566928 0.200878,0.322667 0.312935,0.745651 0.803584,1.06768 0.490649,0.32203 1.359623,0.543319 2.228303,0.764533 M 31.082165,57.026064 c 2.469974,-1.429555 4.939867,-2.859062 6.837292,-4.031497 1.897425,-1.172434 3.222332,-2.087751 4.957694,-3.25994 1.735363,-1.172189 3.881006,-2.601133 5.221455,-3.193465 1.340449,-0.592333 1.875379,-0.348223 2.599623,-0.115587 0.724243,0.232635 1.637762,0.453852 2.227987,0.508495 0.590225,0.05464 0.857303,-0.05716 1.802872,-0.660075 0.945569,-0.602919 2.569626,-1.696925 3.39253,-2.388589 0.822905,-0.691664 0.844701,-0.981236 1.007952,-3.28675 0.163251,-2.305514 0.467942,-6.626792 0.520065,-8.876399 0.05212,-2.249608 -0.148618,-2.427454 -0.482902,-2.549506 -0.334285,-0.122052 -0.802105,-0.188097 -1.448164,-0.480442 -0.646059,-0.292344 -1.470307,-0.811107 -1.806673,-2.091223 -0.336366,-1.280116 -0.184479,-3.321519 -0.264405,-4.419983 -0.07993,-1.098463 -0.39199,-1.253853 -1.52842,-1.563843 -1.136431,-0.309991 -3.097136,-0.774474 -4.411557,-0.950543 -1.314422,-0.176069 -1.982399,-0.06361 -3.862869,0.941765 -1.88047,1.005373 -4.973158,2.90359 -6.552897,3.919668 -1.579738,1.016078 -1.646333,1.149819 -1.823597,1.706965 -0.177264,0.557146 -0.465186,1.53759 -0.553232,2.061147 -0.08805,0.523557 0.02342,0.590189 1.2044,0.90001 1.180975,0.309821 3.431362,0.862916 4.712563,1.183764 1.281201,0.320848 1.593156,0.409422 1.660955,1.110975 0.0678,0.701553 -0.108213,2.015894 -0.318704,2.584183 -0.21049,0.56829 -0.455776,0.390517 -1.191543,-0.07601 -0.735768,-0.466531 -1.961974,-1.221761 -3.13203,-1.665364 -1.170056,-0.443602 -2.283875,-0.5754 -3.386193,-0.367207 -1.102319,0.208193 -2.192987,0.756499 -3.283572,1.304762 0,0 -2.91183,1.052915 -2.91183,1.052915 0,0 -2.530018,0.991506 -2.530018,0.991506 -2.236582,1.095036 -4.473056,2.190018 -6.709746,3.285107 M 14.62079,42.28652 c -0.28768,1.15883 -0.575314,2.317472 -0.684573,3.576106 -0.109259,1.258635 -0.04021,2.617117 0.307293,3.952927 0.347498,1.335811 0.973278,2.64883 1.610013,3.82823 0.636735,1.179399 1.284348,2.22512 2.020907,3.148198 0.736558,0.923078 1.561942,1.723513 2.698957,2.37861 1.137016,0.655097 2.585539,1.164968 3.732838,1.352321 1.147299,0.187352 1.993416,0.05233 2.839331,-0.08267 m -7.75509,-22.0953 c 0.933021,0.0909 1.865755,0.181767 3.136227,0.761443 1.270472,0.579676 2.8786,1.647939 4.298259,3.031581 1.41966,1.383642 2.650858,3.082475 3.47292,5.018276 0.822063,1.9358 1.235107,4.108443 1.253966,6.029755 0.01886,1.921313 -0.35636,3.591295 -0.685421,4.599695 -0.329061,1.0084 -0.611967,1.355338 -2.389319,2.744173 -1.777353,1.388836 -5.049081,3.819526 -7.188804,5.067233 -2.139722,1.247707 -3.147533,1.312361 -4.045353,1.219401 -0.897821,-0.09296 -1.68567,-0.343641 -2.520999,-0.720209 -0.835329,-0.376567 -1.718085,-0.879072 -2.207533,-1.539678 -0.489449,-0.660605 -0.585289,-1.479379 -0.492825,-2.692262 0.09246,-1.212884 0.373294,-2.819717 0.466153,-3.843513 0.09286,-1.023796 -0.0024,-1.464601 -0.712184,-2.203686 C 11.06573,55.078064 9.7411302,54.040831 8.9991174,53.01839 8.2571046,51.995948 8.0979583,50.988293 8.17492,49.932909 8.2518818,48.877526 8.5650397,47.7746 8.9572685,46.860447 9.3494972,45.946295 9.8207638,45.221078 9.8908996,44.685595 9.9610355,44.150112 9.6297422,43.804185 9.2670798,43.525185 8.9044174,43.246184 8.5103507,43.034226 8.2656882,42.766964 8.0210257,42.499702 7.9260021,42.17701 8.5199277,41.910197 c 0.5939256,-0.266813 1.8766283,-0.47738 3.1308583,-0.39429 1.254231,0.08309 2.479813,0.459698 3.471551,0.82559 0.991737,0.365892 1.749571,0.720997 3.354089,1.252872 1.604518,0.531875 4.05561,1.240544 5.448435,1.728318 1.392825,0.487774 1.727345,0.754488 1.983889,1.032513 0.256543,0.278026 0.435196,0.567268 0.54788,1.424569 0.112683,0.8573 0.159575,2.282634 0.273228,3.663366 0.113654,1.380731 0.29403,2.716757 0.578748,3.992108 0.284717,1.27535 0.673687,2.489903 0.345753,3.732711 -0.327933,1.242809 -1.372625,2.514035 -2.417315,3.78526 M 8.7532915,41.812988 C 12.318314,40.6548 15.883177,39.496664 19.447877,38.338581" />
  </g>
</svg>
